<?xml version="1.0" encoding="utf-8"?><svg id="Layer_1" xmlns="http://www.w3.org/2000/svg" viewBox="0 0 761 147"><style>.st0{fill:#fff}</style><path class="st0" d="M75.5 73.5l20.1 20.1-20.1-20.1zm25.2-25.2l25.1 25.2-25.2 25.2.1.1L126 73.5l-25.3-25.2z"/><path fill="#e0e0e0" d="M196.6 73.5l-70.7 70.7-25.3-25.3-10.1-10.1-35.2-35.3 35.2-35.3 10.1 10.1-25.1 25.2 20.1 20.1 5 5.1 10.1 10.1 15.2 15.2 50.5-50.5L125.9 23l-15.2 15.2-10.1-10.1 25.3-25.3z"/><path class="st0" d="M146.1 73.5l-35.4 35.3-10.1-10.1.1.1L126 73.5l-25.3-25.2h-.1L90.5 38.2 75.4 23 25 73.5 75.4 124l15.1-15.2 10.1 10.1-25.2 25.3L4.8 73.5 75.4 2.8l25.2 25.3 10.1 10.1z"/><path fill="#42a5f5" d="M125.8 73.5l-25.2 25.3-5.1-5.1-20.1-20.2 25.2-25.2z"/><path class="st0" d="M326.2 61c0-3.5-.4-6.4-1.1-8.3-.7-2.1-1.9-3.5-3.7-4.6-1.8-1.1-4.1-1.8-6.9-1.9-2.8-.4-6.4-.4-10.6-.4h-22.6c-3.7 0-6.9.2-9.5.4-2.6.2-4.6.7-6.4 1.4-1.6.7-3 1.6-3.9 2.8-.9 1.2-1.6 3-1.9 4.9-.4 2.1-.7 4.6-.7 7.6s-.2 6.7-.2 10.9 0 7.8.2 10.9c0 3 .4 5.7.7 7.6.4 2.1 1.1 3.7 1.9 4.9.9 1.2 2.1 2.3 3.9 2.8 1.6.7 3.7 1.1 6.4 1.4 2.6.2 5.7.4 9.5.4H304c3.4 0 6.2-.2 8.5-.2 2.3-.2 4.4-.5 6-.9 1.6-.5 3-1.1 4.1-1.9 1.1-.9 1.8-1.8 2.5-3.2.5-1.2.9-2.6 1.2-4.4.2-1.8.4-3.7.4-6.2v-4.2H293v-7.1h42V85c0 2.8-.2 5.3-.5 7.6-.4 2.3-1.1 4.2-1.9 6s-2.1 3.4-3.5 4.6c-1.4 1.2-3.4 2.3-5.7 3.2-2.3.9-4.9 1.4-8.1 1.8-3.2.4-6.9.5-11.1.5h-22.6c-5.1 0-9.5-.4-13.1-.9-3.5-.7-6.4-1.6-8.7-2.8-2.3-1.2-4.1-2.8-5.3-4.8s-2.1-4.2-2.6-6.9c-.5-2.6-.9-5.5-1.1-8.8-.2-3.4-.2-6.9-.2-10.9s0-7.6.2-10.9c0-3.4.4-6.2 1.1-8.8.5-2.6 1.4-4.9 2.6-6.9 1.2-1.9 3-3.5 5.3-4.8s5.1-2.3 8.7-2.8c3.5-.7 7.9-.9 13.1-.9h22.6c4.2 0 7.9.2 11.1.5 3.2.4 5.8 1.1 8.1 1.8 2.3.9 4.2 1.8 5.7 3 1.6 1.2 2.6 2.6 3.5 4.4.9 1.6 1.6 3.5 1.9 5.7.4 2.1.5 4.4.5 7.1h-8.8zM348.6 107.4V39.9h8.5v60.4h53.3v7.1h-61.8zM500.5 39.9v33.7c0 4.1 0 7.6-.2 10.9s-.4 6.2-1.1 8.8c-.5 2.6-1.4 4.9-2.6 6.9-1.2 1.9-3 3.5-5.3 4.8-2.3 1.2-5.1 2.3-8.7 2.8-3.5.7-7.9.9-13.1.9h-19.8c-5.1 0-9.5-.4-13.1-.9-3.5-.7-6.4-1.6-8.7-2.8-2.3-1.2-4.1-2.8-5.3-4.8-1.2-1.9-2.1-4.2-2.6-6.9-.5-2.6-.9-5.5-1.1-8.8-.2-3.4-.2-6.9-.2-10.9V39.9h8.5v33.7c0 4.2 0 7.8.2 10.9 0 3 .4 5.7.7 7.6.4 2.1 1.1 3.7 1.9 4.9.9 1.2 2.1 2.3 3.9 2.8 1.6.7 3.7 1.1 6.4 1.4 2.5.2 5.7.4 9.5.4h19.8c3.7 0 6.9-.2 9.4-.4 2.6-.2 4.8-.7 6.4-1.4 1.6-.7 3-1.6 3.9-2.8.9-1.2 1.6-3 1.9-4.9.4-2.1.7-4.6.7-7.6s.2-6.7.2-10.9V39.9h8.4zM514.5 107.4V39.9H582V47h-59v22.4h56.2v7.1H523v23.8h59v7.1h-67.5zM657.9 93.3v14.1h-8.5V93.3h-59v-8.5l56.2-45h11.3v46.4h11.3v7.1h-11.3zm-8.5-7.1V45.8l-50.3 40.4h50.3zM680.3 98.9c0-1.8 0-3.5.2-5.3 0-1.8.4-3.4.5-4.9.4-1.6.7-3.2 1.4-4.4.5-1.4 1.4-2.6 2.5-3.7s2.3-1.9 3.9-2.6 3.4-1.2 5.7-1.4l45-4.2c1.4-.2 2.6-.4 3.7-.5s1.9-.9 2.6-1.8c.7-.9 1.2-2.1 1.6-3.7.4-1.6.5-3.9.5-6.7 0-2.3-.2-4.2-.5-6-.4-1.6-.9-3-1.8-4.1s-1.9-1.9-3.4-2.5c-1.4-.5-3.2-.9-5.1-1.2-2.1-.2-4.6-.4-7.4-.5h-9.9c-5.1 0-9.5.2-13.1.4-3.5.2-6.4.5-8.7 1.1-2.3.5-4.1 1.2-5.3 1.9-1.2.9-2.1 1.9-2.6 3.4-.5 1.4-.9 3-1.1 4.9-.2 1.9-.2 4.1-.2 6.7h-8.5c0-4.2.4-7.8 1.2-10.6.7-2.8 1.9-5.3 3.4-7.1 1.6-1.9 3.4-3.4 5.7-4.4 2.3-1.1 4.8-1.8 7.8-2.3 2.8-.5 6.2-.7 9.7-.9 3.5 0 7.4-.2 11.7-.2s7.9 0 11.5.2c3.4.2 6.5.4 9.2.9 2.6.5 5.1 1.2 7.1 2.1 1.9.9 3.7 2.1 4.9 3.7 1.2 1.6 2.3 3.5 2.8 5.8s.9 5.1.9 8.3c0 2.8-.2 5.3-.5 7.6-.4 2.3-1.1 4.2-2.1 6-1.1 1.8-2.5 3-4.2 4.1-1.8 1.1-4.1 1.6-6.9 1.9l-45 4.2c-2.1.2-3.7.5-4.9 1.2-1.1.5-1.9 1.6-2.5 2.8-.5 1.2-.9 3-.9 4.9 0 2.1-.2 4.8-.2 7.9h66v7.1h-74.5v-8.1h-.2z"/></svg>